<?xml version="1.0" standalone="no"?>
<!DOCTYPE svg PUBLIC "-//W3C//DTD SVG 20010904//EN"
 "http://www.w3.org/TR/2001/REC-SVG-20010904/DTD/svg10.dtd">
<svg version="1.0" xmlns="http://www.w3.org/2000/svg"
 width="700.000000pt" height="700.000000pt" viewBox="0 0 700.000000 700.000000"
 preserveAspectRatio="xMidYMid meet">
<metadata>
Created by potrace 1.14, written by Peter Selinger 2001-2017
</metadata>
<g transform="translate(0.000000,700.000000) scale(0.100000,-0.100000)"
fill="#000000" stroke="none">
<path d="M0 3500 l0 -3500 3500 0 3500 0 0 3500 0 3500 -3500 0 -3500 0 0
-3500z m5913 2161 c109 -43 214 -149 253 -254 18 -51 19 -91 19 -1582 l0
-1530 -32 -68 c-80 -168 -229 -257 -429 -257 l-81 0 -6 143 c-6 161 -25 243
-84 360 -95 190 -227 319 -415 406 -109 51 -191 71 -315 78 -403 23 -764 -233
-878 -622 -21 -71 -28 -119 -32 -228 l-6 -137 -407 0 -407 0 -6 137 c-6 163
-27 246 -92 378 -188 379 -629 564 -1035 433 -228 -73 -404 -225 -514 -445
-58 -117 -77 -199 -83 -360 l-6 -143 -81 0 c-199 0 -350 88 -429 249 l-32 66
-3 1522 c-2 1519 -2 1523 19 1585 48 144 176 259 321 287 24 5 1091 8 2373 7
l2330 -1 58 -24z m-3503 -2797 c90 -22 233 -93 307 -154 277 -225 364 -622
208 -945 -183 -381 -648 -545 -1032 -365 -209 97 -365 284 -425 509 -29 106
-29 286 0 392 111 414 525 661 942 563z m2578 -5 c241 -61 457 -263 536 -501
147 -440 -112 -908 -561 -1014 -99 -24 -267 -21 -368 5 -278 73 -494 290 -565
566 -14 55 -20 111 -20 190 0 185 52 339 164 482 192 245 507 351 814 272z"/>
<path d="M1109 5211 l-29 -29 0 -951 c0 -662 3 -957 11 -974 26 -57 28 -57
509 -57 l442 0 34 34 34 34 0 947 c0 677 -3 953 -11 968 -30 58 -14 57 -507
57 l-454 0 -29 -29z"/>
<path d="M2397 5229 c-46 -27 -47 -42 -47 -508 l0 -441 29 -32 29 -33 457 0
457 0 29 33 29 32 0 441 c0 458 -1 466 -44 501 -19 16 -59 18 -471 17 -287 0
-456 -3 -468 -10z"/>
<path d="M3667 5229 c-46 -27 -47 -42 -47 -508 l0 -441 29 -32 29 -33 457 0
457 0 29 33 29 32 0 441 c0 469 -1 483 -49 509 -27 14 -909 13 -934 -1z"/>
<path d="M4934 5222 c-12 -9 -27 -27 -33 -39 -14 -28 -16 -870 -1 -907 5 -14
24 -35 42 -46 32 -20 47 -20 476 -18 l444 3 29 33 29 32 0 451 0 451 -29 29
-29 29 -454 0 c-414 0 -455 -2 -474 -18z"/>
</g>
</svg>
