<svg width="650" height="650" viewBox="0 0 650 650" fill="none" xmlns="http://www.w3.org/2000/svg">
<rect width="650" height="650" fill="#FFE600"/>
<path fill-rule="evenodd" clip-rule="evenodd" d="M650 650V265.907L557.621 128L552.829 131.507L260.937 203.076L104.139 459.915L100 462.943L225.303 650H650Z" fill="#F1D900"/>
<circle cx="444.5" cy="454.5" r="72.5" fill="white"/>
<circle cx="206.5" cy="454.5" r="72.5" fill="white"/>
<path fill-rule="evenodd" clip-rule="evenodd" d="M75 162C75 139.909 92.9087 122 115 122H535C557.091 122 575 139.909 575 162V427C575 449.091 557.091 467 535 467H524V455.5V455H523.998C523.729 410.771 487.792 375 443.5 375C399.041 375 363 411.041 363 455.5C363 456.336 363.013 457.17 363.038 458H363V467H287V456H286.998C286.999 455.833 287 455.667 287 455.5C287 411.041 250.959 375 206.5 375C162.041 375 126 411.041 126 455.5C126 456.001 126.005 456.501 126.014 457H126V467H115C92.9087 467 75 449.091 75 427V162Z" fill="white"/>
<rect x="100" y="163" width="96" height="190" rx="10" fill="#F1D900"/>
<rect x="218" y="163" width="96" height="96" rx="10" fill="#F1D900"/>
<rect x="336" y="163" width="96" height="96" rx="10" fill="#F1D900"/>
<rect x="454" y="163" width="96" height="96" rx="10" fill="#F1D900"/>
</svg>
