<svg width="214" height="214" viewBox="0 0 214 214" fill="none" xmlns="http://www.w3.org/2000/svg">
<rect width="214" height="214" fill="white"/>
<g clip-path="url(#clip0_5_49)">
<path d="M130.269 38.0417L154.262 34.6562L176.876 65.7399L129.283 78.2911L130.269 38.0417Z" fill="white" stroke="#050505" stroke-width="8" stroke-linejoin="round"/>
<path d="M37.5854 102.746L38.8507 146.019L61.9082 175.722L92.1467 165.565L77.3564 114.783L37.5854 102.746Z" fill="white" stroke="#050505" stroke-width="8" stroke-linejoin="round"/>
<path d="M66.3196 26.1815L52.0779 57.4832L108.576 78.3556L109.769 37.5739L66.3196 26.1815Z" fill="white" stroke="#050505" stroke-width="8" stroke-linejoin="round"/>
<path d="M48.5716 65.1855L39.6655 84.7612L25.4251 80.9554L17.8299 110.007L40.7262 111.533L105.9 169.676L108.317 87.0971L48.5715 65.1895L48.5716 65.1855Z" fill="white" stroke="#050505" stroke-width="8" stroke-linejoin="round"/>
<path d="M70.8598 49.7653L38.8072 55.3833L61.2081 100.173L93.1318 102.124L90.9449 74.342L70.8598 49.7653Z" fill="white" stroke="#050505" stroke-width="8" stroke-linejoin="round"/>
<path d="M62.6827 105.2L53.4633 123.455L60.2441 138.936L60.6506 154.979L97.9609 163.403L93.5585 107.484L62.6831 105.201L62.6827 105.2Z" fill="white" stroke="#050505" stroke-width="8" stroke-linejoin="round"/>
<path d="M177.704 165.237L121.008 169.902L101.745 136.641L112.054 108.749L178.076 110.952L177.704 165.237Z" fill="white" stroke="#050505" stroke-width="8" stroke-linejoin="round"/>
<path d="M135.09 117.308L154.729 132.152L169.761 118.998L169.262 174.933L188.949 159.657L193.268 118.157L174.99 76.2698L143.982 65.992L117.672 90.59L117.117 112.855L135.09 117.308Z" fill="white" stroke="#050505" stroke-width="8" stroke-linejoin="round"/>
<path d="M100.631 64.2955L79.1597 43.7038L117.211 17.8301L137.977 30.1679L135.346 76.5596L100.631 64.2955Z" fill="white" stroke="#050505" stroke-width="8" stroke-linejoin="round"/>
<path d="M141.29 67.8958L148.252 85.3136L164.712 80.1389L192.839 94.5857L197.17 70.6766L181.48 45.0001L141.29 67.8958Z" fill="white" stroke="#050505" stroke-width="8" stroke-linejoin="round"/>
<path d="M151.801 55.0656L124.314 69.9583L110.342 46.7195L80.2516 60.9073L74.3234 93.5642L78.0292 127.068L100.263 138.943L130.48 94.7967L147.552 92.5305L157.116 73.7534L151.801 55.0656Z" fill="white" stroke="#050505" stroke-width="8" stroke-linejoin="round"/>
<path d="M90.6603 129.938L83.5829 92.713L65.7959 84.6548L56.5317 106.284L73.2068 127.914L86.5102 186.133L111.588 197.17L152.093 181.065L156.584 146.998H135.832L133.47 164.62L115.617 152.957L123.344 139.449L116.192 122.401L138.426 127.914L153.99 106.285L96.1817 109.677L103.593 123.673L90.6603 129.938Z" fill="white" stroke="#050505" stroke-width="8" stroke-linejoin="round"/>
</g>
<defs>
<clipPath id="clip0_5_49">
<rect width="183" height="183" fill="white" transform="translate(16 16)"/>
</clipPath>
</defs>
</svg>
