<svg width="500" height="500" viewBox="0 0 500 500" fill="none" xmlns="http://www.w3.org/2000/svg">
<path d="M400 250C400 283.02 389.104 315.118 369.003 341.314C348.902 367.511 320.718 386.343 288.823 394.889C256.928 403.435 223.104 401.218 192.597 388.582C162.091 375.946 136.606 353.596 120.096 325C103.586 296.404 96.9733 263.159 101.283 230.421C105.593 197.683 120.585 167.283 143.934 143.934C167.283 120.585 197.683 105.593 230.421 101.283C263.159 96.9733 296.404 103.586 325 120.096L303.28 157.717C282.965 145.988 259.348 141.29 236.091 144.352C212.834 147.414 191.238 158.064 174.651 174.651C158.064 191.238 147.414 212.834 144.352 236.091C141.29 259.348 145.988 282.965 157.717 303.28C169.445 323.595 187.55 339.471 209.221 348.448C230.893 357.425 254.922 359 277.58 352.929C300.238 346.857 320.259 333.479 334.539 314.869C348.819 296.259 356.56 273.457 356.56 250H400Z" fill="#555555"/>
<path d="M369.99 168.242C370.61 170.827 369.098 173.446 366.548 174.202L290.389 196.777C286.057 198.061 282.379 193.396 284.638 189.483L342.269 89.6646C344.528 85.7516 350.407 86.6046 351.461 90.9983L369.99 168.242Z" fill="#555555"/>
</svg>
